<svg width="131" height="40" viewBox="0 0 131 40" fill="none" xmlns="http://www.w3.org/2000/svg">
<path d="M47.0938 19.5C47.875 19.0521 48.7031 18.6771 49.5781 18.375C50.4531 18.0729 51.224 17.9219 51.8906 17.9219C52.6094 17.9219 53.2708 18.0573 53.875 18.3281C54.4896 18.599 54.9479 19.0312 55.25 19.625C56.0521 19.1771 56.9896 18.7812 58.0625 18.4375C59.1458 18.0938 60.0417 17.9219 60.75 17.9219C63.25 17.9219 64.5 19.3646 64.5 22.25V31.9062L66.3906 32.2969V33H59.7188V32.2969L61.9062 31.9062V22.5312C61.9062 20.7396 61.0729 19.8438 59.4062 19.8438C59.1354 19.8438 58.8177 19.8646 58.4531 19.9062C58.099 19.9479 57.7396 19.9948 57.375 20.0469C57.0208 20.099 56.6771 20.1615 56.3438 20.2344C56.0208 20.2969 55.75 20.349 55.5312 20.3906C55.7083 20.9531 55.7969 21.5729 55.7969 22.25V31.9062L58 32.2969V33H51.0312V32.2969L53.2031 31.9062V22.5312C53.2031 21.6667 52.9792 21.0052 52.5312 20.5469C52.0938 20.0781 51.4323 19.8438 50.5469 19.8438C49.6302 19.8438 48.4896 19.9948 47.125 20.2969V31.9062L49.3281 32.2969V33H42.6719V32.2969L44.5312 31.9062V19.4062L42.6719 19.0156V18.3125H46.9688L47.0938 19.5Z" fill="#0080C7"/>
<path d="M81.6875 25.5781C81.6875 30.7344 79.3958 33.3125 74.8125 33.3125C72.6042 33.3125 70.9375 32.651 69.8125 31.3281C68.6875 30.0052 68.125 28.0885 68.125 25.5781C68.125 23.099 68.6875 21.2031 69.8125 19.8906C70.9375 18.5781 72.6458 17.9219 74.9375 17.9219C77.1667 17.9219 78.849 18.5677 79.9844 19.8594C81.1198 21.1406 81.6875 23.0469 81.6875 25.5781ZM78.875 25.5781C78.875 23.3281 78.5469 21.6979 77.8906 20.6875C77.2344 19.6771 76.2083 19.1719 74.8125 19.1719C73.4479 19.1719 72.4583 19.6562 71.8438 20.625C71.2396 21.5938 70.9375 23.2448 70.9375 25.5781C70.9375 27.9427 71.2448 29.6198 71.8594 30.6094C72.4844 31.5885 73.4688 32.0781 74.8125 32.0781C76.1875 32.0781 77.2083 31.5677 77.875 30.5469C78.5417 29.526 78.875 27.8698 78.875 25.5781Z" fill="#0080C7"/>
<path d="M88.125 33.3125C87.125 33.3125 86.375 33.0156 85.875 32.4219C85.3854 31.8281 85.1406 30.9948 85.1406 29.9219V19.625H83.2188V18.9219L85.1719 18.3125L86.75 14.9844H87.7344V18.3125H91.0938V19.625H87.7344V29.6406C87.7344 30.3177 87.8854 30.8281 88.1875 31.1719C88.5 31.5156 88.9062 31.6875 89.4062 31.6875C90.0104 31.6875 90.7448 31.6042 91.6094 31.4375V32.4531C91.2448 32.7031 90.7188 32.9062 90.0312 33.0625C89.3438 33.2292 88.7083 33.3125 88.125 33.3125Z" fill="#0080C7"/>
<path d="M106.594 25.5781C106.594 30.7344 104.302 33.3125 99.7188 33.3125C97.5104 33.3125 95.8438 32.651 94.7188 31.3281C93.5938 30.0052 93.0312 28.0885 93.0312 25.5781C93.0312 23.099 93.5938 21.2031 94.7188 19.8906C95.8438 18.5781 97.5521 17.9219 99.8438 17.9219C102.073 17.9219 103.755 18.5677 104.891 19.8594C106.026 21.1406 106.594 23.0469 106.594 25.5781ZM103.781 25.5781C103.781 23.3281 103.453 21.6979 102.797 20.6875C102.141 19.6771 101.115 19.1719 99.7188 19.1719C98.3542 19.1719 97.3646 19.6562 96.75 20.625C96.1458 21.5938 95.8438 23.2448 95.8438 25.5781C95.8438 27.9427 96.151 29.6198 96.7656 30.6094C97.3906 31.5885 98.375 32.0781 99.7188 32.0781C101.094 32.0781 102.115 31.5677 102.781 30.5469C103.448 29.526 103.781 27.8698 103.781 25.5781Z" fill="#0080C7"/>
<path d="M118.188 17.9219V21.8906H117.516L116.609 20.1719C116.089 20.1719 115.469 20.2448 114.75 20.3906C114.042 20.526 113.427 20.7083 112.906 20.9375V31.9062L115.422 32.2969V33H108.453V32.2969L110.312 31.9062V19.4062L108.453 19.0156V18.3125H112.734L112.875 20.1406C113.5 19.6198 114.344 19.1198 115.406 18.6406C116.479 18.1615 117.328 17.9219 117.953 17.9219H118.188Z" fill="#0080C7"/>
<path d="M129.766 28.875C129.766 30.3333 129.302 31.4375 128.375 32.1875C127.458 32.9375 126.099 33.3125 124.297 33.3125C123.568 33.3125 122.76 33.2344 121.875 33.0781C121 32.9323 120.312 32.7656 119.812 32.5781V28.9688H120.516L121.281 31.0156C122.062 31.724 123.078 32.0781 124.328 32.0781C126.349 32.0781 127.359 31.2135 127.359 29.4844C127.359 28.2135 126.562 27.3073 124.969 26.7656L123.578 26.3125C122.526 25.9688 121.76 25.6198 121.281 25.2656C120.802 24.9115 120.432 24.4792 120.172 23.9688C119.911 23.4479 119.781 22.8229 119.781 22.0938C119.781 20.8021 120.219 19.7865 121.094 19.0469C121.979 18.2969 123.172 17.9219 124.672 17.9219C125.745 17.9219 127.089 18.0833 128.703 18.4062V21.6094H127.969L127.312 19.9062C126.76 19.4167 125.891 19.1719 124.703 19.1719C123.859 19.1719 123.214 19.3802 122.766 19.7969C122.328 20.2135 122.109 20.776 122.109 21.4844C122.109 22.0781 122.307 22.5781 122.703 22.9844C123.109 23.3906 123.719 23.7292 124.531 24C126.062 24.5208 127.062 24.901 127.531 25.1406C128 25.3802 128.396 25.6771 128.719 26.0312C129.052 26.375 129.307 26.7708 129.484 27.2188C129.672 27.6667 129.766 28.2188 129.766 28.875Z" fill="#0080C7"/>
<rect width="39" height="40" fill="url(#paint0_linear)"/>
<path d="M10.5547 31.4375L13.9141 31.9648V33H3.44531V31.9648L6.80469 31.4375V8.35156L3.44531 7.84375V6.80859H13.9141V7.84375L10.5547 8.35156V31.4375Z" fill="white"/>
<path d="M18.4352 25.9492H19.7047L20.3883 29.4844C20.8701 30.0964 21.6969 30.6367 22.8687 31.1055C24.0536 31.5742 25.219 31.8086 26.3648 31.8086C28.1878 31.8086 29.607 31.3464 30.6227 30.4219C31.6513 29.4844 32.1656 28.1953 32.1656 26.5547C32.1656 25.6172 31.9638 24.8424 31.5602 24.2305C31.1695 23.6185 30.6487 23.1042 29.9977 22.6875C29.3596 22.2578 28.6305 21.8997 27.8102 21.6133C26.9898 21.3138 26.1435 21.0143 25.2711 20.7148C24.4117 20.4154 23.5719 20.0833 22.7516 19.7188C21.9312 19.3542 21.1956 18.8919 20.5445 18.332C19.9065 17.7721 19.3857 17.082 18.982 16.2617C18.5914 15.4284 18.3961 14.4062 18.3961 13.1953C18.3961 11.112 19.1773 9.47786 20.7398 8.29297C22.3023 7.10807 24.4703 6.51562 27.2437 6.51562C29.3531 6.51562 31.6448 6.79557 34.1188 7.35547V12.8047H32.8492L32.1656 9.60156C30.8375 8.63802 29.1969 8.15625 27.2437 8.15625C25.499 8.15625 24.1318 8.51432 23.1422 9.23047C22.1656 9.93359 21.6773 10.9102 21.6773 12.1602C21.6773 13.0065 21.8727 13.7096 22.2633 14.2695C22.6669 14.8294 23.1878 15.3112 23.8258 15.7148C24.4768 16.1055 25.2125 16.444 26.0328 16.7305C26.8661 17.0169 27.7125 17.3164 28.5719 17.6289C29.4443 17.9284 30.2906 18.2734 31.1109 18.6641C31.9443 19.0417 32.6799 19.5299 33.318 20.1289C33.969 20.7148 34.4898 21.4375 34.8805 22.2969C35.2841 23.1432 35.4859 24.1914 35.4859 25.4414C35.4859 27.9674 34.7112 29.9271 33.1617 31.3203C31.6122 32.7005 29.3792 33.3906 26.4625 33.3906C25.0562 33.3906 23.6435 33.2669 22.2242 33.0195C20.8049 32.7721 19.5419 32.4336 18.4352 32.0039V25.9492Z" fill="white"/>
<defs>
<linearGradient id="paint0_linear" x1="0" y1="0" x2="11.5" y2="40" gradientUnits="userSpaceOnUse">
<stop stop-color="#0080C7"/>
<stop offset="0.874312" stop-color="#0080C4"/>
<stop offset="0.875" stop-color="#2E95CF"/>
<stop offset="0.9375" stop-color="#48A2D4"/>
<stop offset="1" stop-color="#68B1DA"/>
</linearGradient>
</defs>
</svg>
